<?xml version="1.0" encoding="UTF-8" standalone="no"?>
<svg
   xmlns:dc="http://purl.org/dc/elements/1.1/"
   xmlns:cc="http://creativecommons.org/ns#"
   xmlns:rdf="http://www.w3.org/1999/02/22-rdf-syntax-ns#"
   xmlns:svg="http://www.w3.org/2000/svg"
   xmlns="http://www.w3.org/2000/svg"
   viewBox="0 0 5400 494.74667"
   height="494.74667"
   width="5400"
   xml:space="preserve"
   id="svg2"
   version="1.1"><metadata
     id="metadata8"><rdf:RDF><cc:Work
         rdf:about=""><dc:format>image/svg+xml</dc:format><dc:type
           rdf:resource="http://purl.org/dc/dcmitype/StillImage" /></cc:Work></rdf:RDF></metadata><defs
     id="defs6"><clipPath
       id="clipPath18"
       clipPathUnits="userSpaceOnUse"><path
         id="path16"
         d="M 0,371.06 H 4050 V 0 H 0 Z" /></clipPath></defs><g
     transform="matrix(1.3333333,0,0,-1.3333333,0,494.74667)"
     id="g10"><g
       id="g12"><g
         clip-path="url(#clipPath18)"
         id="g14"><g
           transform="translate(150.2432,184.9364)"
           id="g20"><path
             id="path22"
             style="fill:#ea4335;fill-opacity:1;fill-rule:nonzero;stroke:none"
             d="m 0,0 101.563,58.639 c 23.902,13.798 32.091,44.363 18.291,68.263 -13.8,23.901 -44.36,32.093 -68.264,18.291 L -123.906,43.87 Z" /></g><g
           transform="translate(226.7725,34.2265)"
           id="g24"><path
             id="path26"
             style="fill:#4285f4;fill-opacity:1;fill-rule:nonzero;stroke:none"
             d="m 0,0 c 17.272,0 34.068,8.964 43.325,24.995 13.8,23.901 5.611,54.466 -18.291,68.264 L -150.462,194.58 c -23.904,13.808 -54.464,5.609 -68.264,-18.292 -13.8,-23.903 -5.611,-54.465 18.291,-68.264 L -24.939,6.704 C -17.07,2.159 -8.476,0 0,0" /></g><g
           transform="translate(401.3457,34.2265)"
           id="g28"><path
             id="path30"
             style="fill:#fbbc04;fill-opacity:1;fill-rule:nonzero;stroke:none"
             d="M 0,0 C 8.478,0 17.068,2.159 24.939,6.704 L 200.433,108.024 78.103,152.805 -25.034,93.259 C -48.936,79.461 -57.125,48.896 -43.325,24.995 -34.069,8.964 -17.271,0 0,0" /></g><g
           transform="translate(576.7456,135.5468)"
           id="g32"><path
             id="path34"
             style="fill:#0f9d58;fill-opacity:1;fill-rule:nonzero;stroke:none"
             d="m 0,0 c 17.272,0 34.068,8.961 43.325,24.995 13.8,23.901 5.611,54.463 -18.292,68.265 l -175.494,101.323 c -23.902,13.799 -54.462,5.612 -68.264,-18.291 -13.8,-23.9 -5.61,-54.462 18.291,-68.264 L -24.939,6.704 C -17.07,2.163 -8.477,0 0,0" /></g><g
           transform="translate(845.5684,99.9208)"
           id="g36"><path
             id="path38"
             style="fill:#676c72;fill-opacity:1;fill-rule:nonzero;stroke:none"
             d="m 0,0 c 26.089,0 46.79,7.497 62.097,22.497 15.303,14.994 22.959,35.95 22.959,62.867 0,26.912 -7.656,47.868 -22.959,62.868 C 46.79,163.227 26.089,170.729 0,170.729 H -40.679 V 0 Z M -66.566,195.691 H 0 c 22.598,0 42.321,-4.675 59.169,-14.022 C 76.013,172.317 88.957,159.326 98,142.685 107.038,126.044 111.559,106.937 111.559,85.364 111.559,63.792 107.038,44.686 98,28.044 88.957,11.402 76.013,-1.594 59.169,-10.94 42.321,-20.291 22.598,-24.962 0,-24.962 h -66.566 z" /></g><g
           transform="translate(1094.8779,170.1845)"
           id="g40"><path
             id="path42"
             style="fill:#676c72;fill-opacity:1;fill-rule:nonzero;stroke:none"
             d="m 0,0 c -0.414,6.573 -2.263,13.146 -5.547,19.724 -3.289,6.572 -8.475,12.12 -15.563,16.641 -7.088,4.517 -15.977,6.78 -26.657,6.78 -12.327,0 -22.757,-3.958 -31.28,-11.865 C -87.575,23.368 -93.175,12.943 -95.842,0 Z m -85.673,-89.37 c -11.917,7.189 -21.216,17.103 -27.89,29.738 -6.678,12.636 -10.015,26.86 -10.015,42.683 0,15.201 3.13,29.171 9.399,41.912 6.265,12.735 15.149,22.905 26.658,30.509 11.503,7.598 24.855,11.402 40.062,11.402 15.409,0 28.761,-3.442 40.063,-10.324 C 3.9,49.664 12.582,40.164 18.645,28.044 c 6.057,-12.125 9.09,-25.992 9.09,-41.604 0,-3.082 -0.308,-5.753 -0.924,-8.012 H -97.383 c 0.616,-11.917 3.491,-21.987 8.629,-30.201 5.132,-8.219 11.657,-14.383 19.568,-18.491 7.907,-4.112 16.18,-6.163 24.809,-6.163 20.132,0 35.642,9.448 46.534,28.352 l 22.189,-10.786 c -6.78,-12.742 -15.977,-22.805 -27.582,-30.202 -11.61,-7.395 -25.632,-11.093 -42.066,-11.093 -14.999,0 -28.458,3.596 -40.371,10.786" /></g><g
           transform="translate(1126.6177,232.1278)"
           id="g44"><path
             id="path46"
             style="fill:#676c72;fill-opacity:1;fill-rule:nonzero;stroke:none"
             d="m 0,0 h 28.044 l 48.692,-126.352 h 0.615 L 126.66,0 h 27.427 L 89.988,-157.169 H 63.484 Z" /></g><g
           transform="translate(1406.7461,170.1845)"
           id="g48"><path
             id="path50"
             style="fill:#676c72;fill-opacity:1;fill-rule:nonzero;stroke:none"
             d="m 0,0 c -0.414,6.573 -2.263,13.146 -5.547,19.724 -3.289,6.572 -8.474,12.12 -15.562,16.641 -7.088,4.517 -15.978,6.78 -26.658,6.78 -12.327,0 -22.756,-3.958 -31.28,-11.865 C -87.574,23.368 -93.174,12.943 -95.842,0 Z m -85.672,-89.37 c -11.918,7.189 -21.216,17.103 -27.89,29.738 -6.678,12.636 -10.015,26.86 -10.015,42.683 0,15.201 3.13,29.171 9.398,41.912 6.265,12.735 15.15,22.905 26.658,30.509 11.503,7.598 24.856,11.402 40.062,11.402 15.409,0 28.762,-3.442 40.063,-10.324 C 3.9,49.664 12.582,40.164 18.645,28.044 24.702,15.919 27.736,2.052 27.736,-13.56 c 0,-3.082 -0.308,-5.753 -0.924,-8.012 H -97.383 c 0.616,-11.917 3.491,-21.987 8.629,-30.201 5.133,-8.219 11.657,-14.383 19.569,-18.491 7.907,-4.112 16.179,-6.163 24.808,-6.163 20.133,0 35.643,9.448 46.534,28.352 l 22.189,-10.786 c -6.78,-12.742 -15.977,-22.805 -27.581,-30.202 -11.61,-7.395 -25.632,-11.093 -42.067,-11.093 -14.999,0 -28.458,3.596 -40.37,10.786" /></g><path
           id="path52"
           style="fill:#676c72;fill-opacity:1;fill-rule:nonzero;stroke:none"
           d="m 1458.824,295.612 h 26.194 V 74.959 h -26.194 z" /><g
           transform="translate(1615.5332,100.9999)"
           id="g54"><path
             id="path56"
             style="fill:#676c72;fill-opacity:1;fill-rule:nonzero;stroke:none"
             d="m 0,0 c 8.321,4.824 14.995,11.759 20.032,20.802 5.031,9.038 7.55,19.617 7.55,31.741 0,12.12 -2.519,22.699 -7.55,31.742 C 14.995,93.323 8.321,100.258 0,105.087 c -8.32,4.825 -17.311,7.242 -26.965,7.242 -9.659,0 -18.697,-2.417 -27.119,-7.242 -8.427,-4.829 -15.153,-11.764 -20.186,-20.802 -5.037,-9.043 -7.55,-19.622 -7.55,-31.742 0,-12.124 2.513,-22.703 7.55,-31.741 5.033,-9.043 11.759,-15.978 20.186,-20.802 8.422,-4.83 17.46,-7.242 27.119,-7.242 C -17.311,-7.242 -8.32,-4.83 0,0 m -68.568,-19.878 c -12.328,7.397 -21.934,17.46 -28.815,30.201 -6.886,12.737 -10.323,26.812 -10.323,42.22 0,15.409 3.437,29.479 10.323,42.221 6.881,12.736 16.487,22.804 28.815,30.201 12.327,7.395 26.195,11.094 41.603,11.094 15.409,0 29.277,-3.699 41.604,-11.094 C 26.966,117.568 36.567,107.5 43.453,94.764 50.334,82.022 53.777,67.952 53.777,52.543 53.777,37.135 50.334,23.06 43.453,10.323 36.567,-2.418 26.966,-12.481 14.639,-19.878 2.312,-27.273 -11.556,-30.972 -26.965,-30.972 c -15.408,0 -29.276,3.699 -41.603,11.094" /></g><g
           transform="translate(1793.1973,101.1532)"
           id="g58"><path
             id="path60"
             style="fill:#676c72;fill-opacity:1;fill-rule:nonzero;stroke:none"
             d="m 0,0 c 8.013,4.932 14.432,11.967 19.261,21.11 4.825,9.14 7.242,19.57 7.242,31.28 0,11.711 -2.417,22.135 -7.242,31.28 C 14.432,92.81 8.013,99.849 0,104.779 c -8.013,4.932 -16.54,7.397 -25.578,7.397 -9.043,0 -17.567,-2.465 -25.579,-7.397 -8.012,-4.93 -14.383,-11.917 -19.107,-20.955 -4.728,-9.043 -7.088,-19.521 -7.088,-31.434 0,-11.917 2.36,-22.396 7.088,-31.434 C -65.54,11.913 -59.169,4.932 -51.157,0 c 8.012,-4.931 16.536,-7.396 25.579,-7.396 9.038,0 17.565,2.465 25.578,7.396 m -102.313,130.975 h 24.961 v -23.421 h 1.233 c 4.723,8.011 11.865,14.739 21.418,20.185 9.554,5.441 20.287,8.166 32.204,8.166 13.97,0 26.706,-3.596 38.214,-10.786 C 27.221,117.926 36.259,107.963 42.836,95.227 49.409,82.485 52.698,68.208 52.698,52.39 52.698,36.365 49.409,22.035 42.836,9.399 36.259,-3.235 27.221,-13.149 15.717,-20.339 4.209,-27.528 -8.527,-31.125 -22.497,-31.125 c -11.917,0 -22.65,2.726 -32.204,8.166 -9.553,5.441 -16.695,12.067 -21.418,19.878 h -1.233 l 1.233,-21.572 V -92.76 h -26.194 z" /></g><g
           transform="translate(1985.4951,170.1845)"
           id="g62"><path
             id="path64"
             style="fill:#676c72;fill-opacity:1;fill-rule:nonzero;stroke:none"
             d="m 0,0 c -0.414,6.573 -2.263,13.146 -5.547,19.724 -3.289,6.572 -8.474,12.12 -15.562,16.641 -7.088,4.517 -15.978,6.78 -26.658,6.78 -12.327,0 -22.756,-3.958 -31.28,-11.865 C -87.574,23.368 -93.174,12.943 -95.842,0 Z m -85.672,-89.37 c -11.918,7.189 -21.216,17.103 -27.89,29.738 -6.678,12.636 -10.015,26.86 -10.015,42.683 0,15.201 3.13,29.171 9.398,41.912 6.265,12.735 15.15,22.905 26.658,30.509 11.503,7.598 24.856,11.402 40.062,11.402 15.409,0 28.762,-3.442 40.063,-10.324 C 3.9,49.664 12.582,40.164 18.645,28.044 24.702,15.919 27.736,2.052 27.736,-13.56 c 0,-3.082 -0.308,-5.753 -0.924,-8.012 H -97.383 c 0.616,-11.917 3.491,-21.987 8.629,-30.201 5.133,-8.219 11.657,-14.383 19.569,-18.491 7.907,-4.112 16.179,-6.163 24.808,-6.163 20.133,0 35.643,9.448 46.534,28.352 l 22.189,-10.786 c -6.78,-12.742 -15.977,-22.805 -27.581,-30.202 -11.61,-7.395 -25.632,-11.093 -42.067,-11.093 -14.999,0 -28.458,3.596 -40.37,10.786" /></g><g
           transform="translate(2037.5732,232.1278)"
           id="g66"><path
             id="path68"
             style="fill:#676c72;fill-opacity:1;fill-rule:nonzero;stroke:none"
             d="m 0,0 h 24.962 v -25.271 h 1.232 c 3.082,8.629 9.039,15.819 17.875,21.573 8.831,5.75 18.077,8.629 27.736,8.629 7.189,0 13.352,-1.132 18.49,-3.39 v -28.044 c -6.577,3.284 -13.974,4.931 -22.189,4.931 -7.603,0 -14.589,-2.162 -20.956,-6.487 -6.37,-4.324 -11.455,-10.14 -15.254,-17.45 -3.804,-7.309 -5.702,-15.187 -5.702,-23.628 v -88.032 H 0 Z" /></g><g
           transform="translate(2222.4766,85.745)"
           id="g70"><path
             id="path72"
             style="fill:#676c72;fill-opacity:1;fill-rule:nonzero;stroke:none"
             d="M 0,0 C -14.383,10.478 -24.245,25.164 -29.585,44.069 L -4.623,54.238 C -1.132,41.088 5.34,30.302 14.792,21.88 24.239,13.454 35.334,9.245 48.075,9.245 c 12.737,0 23.523,3.439 32.359,10.324 8.831,6.881 13.251,16.281 13.251,28.198 0,10.271 -3.751,18.746 -11.248,25.424 -7.502,6.674 -19.777,12.891 -36.828,18.645 l -13.867,4.931 c -15.616,5.546 -28.352,12.837 -38.214,21.88 -9.861,9.039 -14.792,21.573 -14.792,37.597 0,10.479 2.874,20.186 8.628,29.123 5.75,8.937 13.763,16.073 24.038,21.418 10.271,5.34 21.775,8.013 34.516,8.013 12.736,0 23.83,-2.364 33.283,-7.088 9.447,-4.73 16.997,-10.479 22.651,-17.258 5.648,-6.78 9.601,-13.459 11.864,-20.032 L 89.063,159.942 c -2.057,7.599 -6.732,14.485 -14.023,20.648 -7.295,6.164 -16.901,9.245 -28.814,9.245 -11.301,0 -20.955,-3.188 -28.968,-9.553 -8.013,-6.371 -12.019,-14.384 -12.019,-24.038 0,-8.629 3.39,-15.669 10.169,-21.109 6.78,-5.447 17.051,-10.531 30.818,-15.255 l 14.484,-4.931 c 18.693,-6.78 33.283,-15.255 43.761,-25.425 10.478,-10.17 15.717,-23.989 15.717,-41.449 0,-14.176 -3.65,-26.094 -10.94,-35.748 C 101.953,2.668 92.761,-4.42 81.666,-8.938 70.572,-13.454 59.169,-15.717 47.459,-15.717 30.201,-15.717 14.378,-10.478 0,0" /></g><g
           transform="translate(2404.7598,73.163)"
           id="g74"><path
             id="path76"
             style="fill:#676c72;fill-opacity:1;fill-rule:nonzero;stroke:none"
             d="m 0,0 c -5.445,2.09 -10.016,4.916 -13.713,8.475 -4.112,3.972 -7.194,8.576 -9.246,13.805 -2.056,5.229 -3.081,11.61 -3.081,19.14 v 93.815 h -27.428 v 23.73 h 27.428 v 44.377 H 0.154 v -44.377 h 38.214 v -23.73 H 0.154 V 47.671 c 0,-8.822 1.643,-15.332 4.931,-19.531 3.9,-4.622 9.554,-6.929 16.95,-6.929 5.956,0 11.71,1.743 17.258,5.239 V 0.871 C 36.211,-0.563 33.076,-1.594 29.894,-2.21 26.706,-2.827 22.651,-3.135 17.721,-3.135 11.35,-3.135 5.441,-2.085 0,0" /></g><g
           transform="translate(2482.4199,86.6698)"
           id="g78"><path
             id="path80"
             style="fill:#676c72;fill-opacity:1;fill-rule:nonzero;stroke:none"
             d="m 0,0 c -9.968,11.094 -14.946,26.604 -14.946,46.534 v 98.924 H 11.248 V 50.54 c 0,-14.999 3.39,-25.992 10.17,-32.975 6.78,-6.986 15.919,-10.477 27.428,-10.477 8.831,0 16.689,2.359 23.575,7.088 6.881,4.723 12.221,10.886 16.025,18.49 3.799,7.599 5.701,15.611 5.701,24.038 v 88.754 h 26.195 V -11.711 H 95.38 V 11.094 H 94.147 C 89.833,3.283 82.947,-3.289 73.499,-8.629 64.047,-13.97 53.979,-16.642 43.299,-16.642 24.394,-16.642 9.963,-11.095 0,0" /></g><g
           transform="translate(2729.2676,101.1532)"
           id="g82"><path
             id="path84"
             style="fill:#676c72;fill-opacity:1;fill-rule:nonzero;stroke:none"
             d="m 0,0 c 7.906,4.932 14.277,11.913 19.106,20.956 4.826,9.038 7.243,19.517 7.243,31.434 0,11.913 -2.417,22.391 -7.243,31.434 -4.829,9.038 -11.2,16.025 -19.106,20.955 -7.911,4.932 -16.487,7.397 -25.732,7.397 -9.043,0 -17.567,-2.465 -25.579,-7.397 -8.012,-4.93 -14.436,-11.969 -19.261,-21.109 -4.829,-9.145 -7.242,-19.569 -7.242,-31.28 0,-11.71 2.413,-22.14 7.242,-31.28 4.825,-9.143 11.249,-16.178 19.261,-21.11 8.012,-4.931 16.536,-7.396 25.579,-7.396 9.245,0 17.821,2.465 25.732,7.396 m -66.874,-20.339 c -11.402,7.19 -20.393,17.104 -26.965,29.738 -6.578,12.636 -9.861,26.966 -9.861,42.991 0,15.818 3.283,30.095 9.861,42.837 6.572,12.736 15.563,22.699 26.965,29.892 11.402,7.19 24.086,10.786 38.06,10.786 12.12,0 22.906,-2.725 32.358,-8.166 9.447,-5.446 16.642,-12.174 21.572,-20.185 h 1.233 l -1.233,21.88 v 65.025 H 51.312 V -26.194 H 26.349 v 23.113 h -1.233 c -4.93,-7.811 -12.125,-14.437 -21.572,-19.878 -9.452,-5.44 -20.238,-8.166 -32.358,-8.166 -13.974,0 -26.658,3.597 -38.06,10.786" /></g><g
           transform="translate(2926.9609,170.1845)"
           id="g86"><path
             id="path88"
             style="fill:#676c72;fill-opacity:1;fill-rule:nonzero;stroke:none"
             d="m 0,0 c -0.414,6.573 -2.263,13.146 -5.547,19.724 -3.289,6.572 -8.474,12.12 -15.562,16.641 -7.088,4.517 -15.978,6.78 -26.658,6.78 -12.327,0 -22.756,-3.958 -31.28,-11.865 C -87.574,23.368 -93.174,12.943 -95.842,0 Z m -85.672,-89.37 c -11.918,7.189 -21.216,17.103 -27.89,29.738 -6.678,12.636 -10.015,26.86 -10.015,42.683 0,15.201 3.13,29.171 9.398,41.912 6.265,12.735 15.15,22.905 26.658,30.509 11.503,7.598 24.856,11.402 40.062,11.402 15.409,0 28.762,-3.442 40.063,-10.324 C 3.9,49.664 12.582,40.164 18.645,28.044 24.702,15.919 27.736,2.052 27.736,-13.56 c 0,-3.082 -0.308,-5.753 -0.924,-8.012 H -97.383 c 0.616,-11.917 3.491,-21.987 8.629,-30.201 5.133,-8.219 11.657,-14.383 19.569,-18.491 7.907,-4.112 16.179,-6.163 24.808,-6.163 20.133,0 35.643,9.448 46.534,28.352 l 22.189,-10.786 c -6.78,-12.742 -15.977,-22.805 -27.581,-30.202 -11.61,-7.395 -25.632,-11.093 -42.067,-11.093 -14.999,0 -28.458,3.596 -40.37,10.786" /></g><g
           transform="translate(2979.0391,232.1278)"
           id="g90"><path
             id="path92"
             style="fill:#676c72;fill-opacity:1;fill-rule:nonzero;stroke:none"
             d="m 0,0 h 24.962 v -23.113 h 1.232 c 4.315,7.805 11.197,14.431 20.649,19.878 9.447,5.44 19.515,8.166 30.201,8.166 18.899,0 33.331,-5.499 43.298,-16.488 9.963,-10.993 14.946,-25.939 14.946,-44.839 v -100.773 h -26.194 v 96.767 c 0,14.586 -3.496,25.164 -10.478,31.742 -6.987,6.572 -16.541,9.861 -28.661,9.861 -8.426,0 -15.976,-2.364 -22.65,-7.088 -6.679,-4.728 -11.865,-10.94 -15.563,-18.644 -3.698,-7.704 -5.548,-15.77 -5.548,-24.192 v -88.446 H 0 Z" /></g><g
           transform="translate(3180.7373,73.163)"
           id="g94"><path
             id="path96"
             style="fill:#676c72;fill-opacity:1;fill-rule:nonzero;stroke:none"
             d="m 0,0 c -5.445,2.09 -10.016,4.916 -13.713,8.475 -4.112,3.972 -7.194,8.576 -9.246,13.805 -2.056,5.229 -3.081,11.61 -3.081,19.14 v 93.815 h -27.428 v 23.73 h 27.428 v 44.377 H 0.154 v -44.377 h 38.214 v -23.73 H 0.154 V 47.671 c 0,-8.822 1.643,-15.332 4.931,-19.531 3.9,-4.622 9.554,-6.929 16.95,-6.929 5.956,0 11.71,1.743 17.258,5.239 V 0.871 C 36.211,-0.563 33.076,-1.594 29.894,-2.21 26.706,-2.827 22.651,-3.135 17.721,-3.135 11.35,-3.135 5.441,-2.085 0,0" /></g><g
           transform="translate(3354.3955,85.1288)"
           id="g98"><path
             id="path100"
             style="fill:#676c72;fill-opacity:1;fill-rule:nonzero;stroke:none"
             d="m 0,0 c -17.465,10.063 -31.179,23.884 -41.142,41.449 -9.967,17.567 -14.946,37.135 -14.946,58.707 0,21.573 4.979,41.142 14.946,58.707 9.963,17.567 23.677,31.381 41.142,41.45 17.46,10.064 36.875,15.101 58.244,15.101 16.435,0 31.483,-3.135 45.148,-9.399 13.661,-6.27 25.526,-15.154 35.594,-26.658 l -18.798,-18.182 c -8.427,10.064 -17.62,17.46 -27.583,22.188 -9.966,4.724 -21.417,7.088 -34.361,7.088 -16.024,0 -30.716,-3.751 -44.068,-11.248 -13.358,-7.502 -23.989,-18.081 -31.897,-31.742 -7.911,-13.665 -11.864,-29.431 -11.864,-47.305 0,-17.874 3.953,-33.643 11.864,-47.304 C -9.813,39.187 0.818,28.607 14.176,21.109 27.528,13.607 42.22,9.861 58.244,9.861 c 26.706,0 49.409,10.989 68.107,32.975 l 19.107,-18.49 C 135.183,12.221 122.547,2.619 107.553,-4.469 92.553,-11.557 76.118,-15.101 58.244,-15.101 36.875,-15.101 17.46,-10.068 0,0" /></g><path
           id="path102"
           style="fill:#676c72;fill-opacity:1;fill-rule:nonzero;stroke:none"
           d="m 3522.968,295.612 h 26.194 V 74.959 h -26.194 z" /><g
           transform="translate(3595.542,86.6698)"
           id="g104"><path
             id="path106"
             style="fill:#676c72;fill-opacity:1;fill-rule:nonzero;stroke:none"
             d="m 0,0 c -9.968,11.094 -14.946,26.604 -14.946,46.534 v 98.924 H 11.248 V 50.54 c 0,-14.999 3.39,-25.992 10.17,-32.975 6.78,-6.986 15.919,-10.477 27.428,-10.477 8.831,0 16.689,2.359 23.575,7.088 6.881,4.723 12.221,10.886 16.025,18.49 3.799,7.599 5.701,15.611 5.701,24.038 v 88.754 h 26.195 V -11.711 H 95.38 V 11.094 H 94.147 C 89.833,3.283 82.947,-3.289 73.499,-8.629 64.047,-13.97 53.979,-16.642 43.299,-16.642 24.394,-16.642 9.963,-11.095 0,0" /></g><g
           transform="translate(3850.8613,101.1532)"
           id="g108"><path
             id="path110"
             style="fill:#676c72;fill-opacity:1;fill-rule:nonzero;stroke:none"
             d="m 0,0 c 8.013,4.932 14.432,11.967 19.262,21.11 4.824,9.14 7.241,19.57 7.241,31.28 0,11.711 -2.417,22.135 -7.241,31.28 C 14.432,92.81 8.013,99.849 0,104.779 c -8.012,4.932 -16.54,7.397 -25.578,7.397 -9.043,0 -17.567,-2.465 -25.578,-7.397 -8.013,-4.93 -14.384,-11.917 -19.108,-20.955 -4.728,-9.043 -7.088,-19.521 -7.088,-31.434 0,-11.917 2.36,-22.396 7.088,-31.434 C -65.54,11.913 -59.169,4.932 -51.156,0 c 8.011,-4.931 16.535,-7.396 25.578,-7.396 9.038,0 17.566,2.465 25.578,7.396 m -54.7,-22.959 c -9.554,5.441 -16.695,12.067 -21.419,19.878 h -1.233 v -23.113 h -24.961 v 220.653 h 26.194 v -65.025 l -1.233,-21.88 h 1.233 c 4.724,8.011 11.865,14.739 21.419,20.185 9.553,5.441 20.286,8.166 32.204,8.166 13.969,0 26.705,-3.596 38.213,-10.786 11.504,-7.193 20.542,-17.156 27.12,-29.892 6.572,-12.742 9.861,-27.019 9.861,-42.837 0,-16.025 -3.289,-30.355 -9.861,-42.991 -6.578,-12.634 -15.616,-22.548 -27.12,-29.738 -11.508,-7.189 -24.244,-10.786 -38.213,-10.786 -11.918,0 -22.651,2.726 -32.204,8.166" /></g><g
           transform="translate(3938.999,81.8925)"
           id="g112"><path
             id="path114"
             style="fill:#676c72;fill-opacity:1;fill-rule:nonzero;stroke:none"
             d="m 0,0 c -11.301,7.907 -19.313,18.028 -24.037,30.355 l 23.421,10.478 c 3.9,-9.452 9.708,-16.747 17.412,-21.88 7.704,-5.138 16.179,-7.704 25.425,-7.704 9.861,0 18.283,2.003 25.269,6.009 6.983,4.007 10.479,9.708 10.479,17.103 0,6.574 -2.774,11.866 -8.322,15.871 -5.546,4.007 -14.281,7.445 -26.194,10.325 l -19.107,4.93 c -12.533,3.082 -22.805,8.321 -30.818,15.717 -8.011,7.397 -12.018,16.95 -12.018,28.66 0,9.038 2.72,16.998 8.167,23.884 5.441,6.881 12.682,12.173 21.725,15.871 9.039,3.698 18.799,5.547 29.278,5.547 13.761,0 26.04,-2.98 36.826,-8.937 10.786,-5.961 18.437,-14.282 22.959,-24.962 L 77.66,110.789 c -6.986,13.969 -19.415,20.956 -37.289,20.956 -8.629,0 -16.179,-2.003 -22.65,-6.01 -6.472,-4.006 -9.708,-9.09 -9.708,-15.255 0,-5.753 2.258,-10.429 6.78,-14.021 4.517,-3.597 11.296,-6.524 20.339,-8.783 L 57.938,81.82 c 15.408,-3.905 27.012,-9.707 34.823,-17.411 7.805,-7.705 11.711,-17.104 11.711,-28.198 0,-9.659 -2.774,-18.134 -8.322,-25.425 C 90.604,3.491 83.102,-2.108 73.654,-6.009 64.202,-9.909 53.724,-11.864 42.221,-11.864 25.372,-11.864 11.297,-7.906 0,0" /></g></g></g></g></svg>